<svg xmlns="http://www.w3.org/2000/svg" style="display: none;">
	<symbol id="ow-logo" viewBox="0 0 156 50">
			<path fill-rule="evenodd" clip-rule="evenodd" d="M48.0179 24.7924L48.017 24.7919C44.5855 22.8375 37.9008 19.0301 37.8743 18.8807C37.8573 18.7902 37.8399 18.6961 37.822 18.5988L37.8217 18.5969C37.5516 17.1296 37.1495 14.9455 35.5814 13.7806C34.4783 12.9683 28.5153 10.2103 25.7776 8.94409C24.9417 8.5575 24.4065 8.30996 24.402 8.29929C22.6123 5.65166 21.0263 2.87741 19.6571 -0.000488281C18.3569 0.957304 17.2993 2.19516 16.5664 3.61721C15.8335 5.03925 15.4448 6.60732 15.4306 8.19997C10.6557 8.86972 6.17411 10.8556 2.50959 13.9255C12.0131 11.7942 14.7504 13.7591 14.7504 13.7591C11.6389 14.3016 8.6408 15.3447 5.87766 16.846C1.82665 19.0257 0 21.6428 0 21.6428C0 21.6428 9.19911 19.0686 16.2589 21.573C12.9667 22.0276 9.90646 23.4917 7.51782 25.7551C22.1503 27.5294 29.3664 39.9576 32.4026 49.9995C33.5189 32.1383 24.4322 25.3552 24.4322 25.3552C27.0707 25.5404 30.3894 27.5482 32.5123 30.5358C38.9048 29.8307 42.4992 31.7148 42.5583 31.7617C42.5678 31.7547 42.714 31.7073 42.9615 31.6269C43.9575 31.3035 46.5937 30.4475 48.5764 29.5534C48.3598 29.234 47.4492 28.1254 46.9308 27.5053C47.0021 27.5107 48.9933 27.3952 49.9999 25.9269C50.0098 25.9269 49.2104 25.4716 48.0179 24.7924ZM29.8505 18.0057C30.3227 17.8815 33.1591 17.1356 34.0071 17.45C34.8299 17.7533 34.8463 20.0457 34.8463 20.0457C34.8463 20.0457 32.9676 20.3034 29.7888 18.0217L29.805 18.0176L29.849 18.0061L29.8505 18.0057Z" fill="white"/>
			<path d="M146.013 20.1517H147.836V19.5045C147.836 18.116 148.233 16.9854 148.993 16.201C149.755 15.4154 150.86 14.9995 152.229 14.9995C153.473 14.9995 154.488 15.3473 155.361 15.951L155.5 16.0474L154.26 18.1176L154.095 17.9899C153.6 17.6087 153.07 17.4013 152.411 17.4013C151.86 17.4013 151.424 17.5725 151.125 17.8916C150.824 18.2126 150.639 18.7066 150.639 19.3925V20.1517H154.643V22.5759H150.639V32.2083H147.836V22.5759H145.37L146.013 20.1517Z" fill="white"/>
			<path d="M143.6 15.2907H140.797V32.2083H143.6V15.2907Z" fill="white"/>
			<path d="M120.012 32.4547H120.738L125.777 20.1517H122.735L120.301 26.9562L117.323 20.0845H116.577L113.664 26.9563L111.165 20.1517H108.102L113.095 32.4547H113.844L116.928 25.1097L120.012 32.4547Z" fill="white"/>
			<path fill-rule="evenodd" clip-rule="evenodd" d="M106.252 22.7771L106.449 22.7901V19.9725H106.265C104.824 19.9725 103.123 20.3549 101.972 22.0495L101.917 20.1517H99.2102V32.2083H102.013V26.3816C102.013 24.8427 102.593 23.9235 103.39 23.3963C104.2 22.8615 105.262 22.7113 106.252 22.7771Z" fill="white"/>
			<path fill-rule="evenodd" clip-rule="evenodd" d="M88.6895 29.1928C88.1289 28.6923 87.7566 27.9533 87.6213 26.9665H96.6524V26.7848C96.6524 26.6784 96.6578 26.5766 96.6635 26.4696L96.6636 26.4676C96.6692 26.3624 96.6751 26.252 96.6751 26.1352C96.6751 24.162 96.0839 22.5852 95.0529 21.5001C94.021 20.4141 92.5649 19.8381 90.8718 19.8381C87.5173 19.8381 84.7272 22.2935 84.7272 26.1576C84.7272 28.1227 85.3545 29.712 86.4613 30.8105C87.5679 31.909 89.1366 32.4995 90.9855 32.4995C93.0987 32.4995 94.7435 31.8792 96.0805 30.4471L96.1895 30.3304L94.6395 28.4883L94.4963 28.6263C93.4609 29.6242 92.4378 30.0082 91.1675 30.0082C90.1206 30.0082 89.2874 29.7265 88.6895 29.1928ZM90.849 22.2175C91.7145 22.2175 92.3931 22.5037 92.8808 22.997C93.3337 23.455 93.6343 24.104 93.7557 24.9007H87.6833C88.0497 23.2596 89.2675 22.2175 90.849 22.2175Z" fill="white"/>
			<path fill-rule="evenodd" clip-rule="evenodd" d="M77.3595 32.4547H78.0663L84.2547 20.1517H81.0846L77.7688 27.5686L74.409 20.1517H71.1946L77.3595 32.4547Z" fill="white"/>
			<path fill-rule="evenodd" clip-rule="evenodd" d="M125.948 26.18C125.948 30.1437 128.954 32.4995 132.321 32.4995C135.734 32.4995 138.693 30.12 138.693 26.18C138.693 22.1723 135.711 19.8381 132.343 19.8381C128.931 19.8381 125.948 22.1944 125.948 26.18ZM135.821 26.1576C135.821 28.5943 134.147 30.0082 132.321 30.0082C130.45 30.0082 128.82 28.5951 128.82 26.18C128.82 23.7441 130.494 22.3295 132.343 22.3295C134.213 22.3295 135.821 23.7411 135.821 26.1576Z" fill="white"/>
			<path fill-rule="evenodd" clip-rule="evenodd" d="M58 26.18C58 30.1437 61.0053 32.4995 64.3721 32.4995C67.7857 32.4995 70.7441 30.12 70.7441 26.18C70.7441 22.1723 67.7624 19.8381 64.3948 19.8381C60.9821 19.8381 58 22.1944 58 26.18ZM67.8729 26.1576C67.8729 28.5943 66.1981 30.0082 64.3721 30.0082C62.5012 30.0082 60.8712 28.5951 60.8712 26.18C60.8712 23.7441 62.5453 22.3295 64.3948 22.3295C66.2642 22.3295 67.8729 23.7411 67.8729 26.1576Z" fill="white"/>
	</symbol>
	<symbol id="arrow-down" viewBox="0 0 24 24">
			<path fill-rule="evenodd" clip-rule="evenodd" d="M20.5714 6.57045L22 7.99902L12 17.999L10.5714 16.5705L1.9999 7.99888L3.42847 6.57031L12 15.1419L20.5714 6.57045Z"/>
	</symbol>
	<symbol id="arrow-up" viewBox="0 0 24 24">
		<path fill-rule="evenodd" clip-rule="evenodd" d="M3.42857 17.4276L2 15.999L12 5.99902L13.4286 7.42759L22.0001 15.9992L20.5715 17.4277L12 8.85618L3.42857 17.4276Z"/>
	</symbol>
	<symbol id="tools" viewBox="0 0 40 40">
		<path d="M27.8866 22.3752L23.6012 26.7194L35.7146 38.999L40 34.6548L27.8866 22.3752Z"/>
		<path d="M31.1108 16.1279C35.0097 16.1279 38.1814 12.9127 38.1814 8.96024C38.1814 7.77246 37.8582 6.66659 37.3532 5.6836L31.8987 11.2129L28.8886 8.16156L34.3431 2.63223C33.3734 2.12025 32.2825 1.79259 31.1108 1.79259C27.2118 1.79259 24.0402 5.00779 24.0402 8.96024C24.0402 9.79988 24.2018 10.5986 24.4644 11.3358L20.7271 15.1244L17.1311 11.4792L18.5655 10.0252L15.717 7.13761L19.9998 2.79606C17.6362 0.400012 13.7978 0.400012 11.4342 2.79606L4.28278 10.0456L7.13124 12.9332H1.43433L0 14.3872L7.15144 21.6368L8.58577 20.1827V14.3872L11.4342 17.2747L12.8686 15.8207L16.4645 19.466L1.49493 34.6409L5.77772 38.9825L28.7674 15.6978C29.4947 15.9641 30.2825 16.1279 31.1108 16.1279Z" />
	</symbol>
	<symbol id="games" viewBox="0 0 41 40">
		<path d="M9.6357 21.7432L0.333374 38.4874H18.938L9.6357 21.7432ZM35.2171 2.99902C33.245 2.99902 31.8497 4.04088 31.031 5.17577C30.2124 4.04088 28.8171 2.99902 26.845 2.99902C23.9427 2.99902 21.7287 5.38042 21.7287 8.1153C21.7287 11.8362 26.231 14.4781 31.031 18.813C35.8311 14.4781 40.3334 11.8362 40.3334 8.1153C40.3334 5.38042 38.1194 2.99902 35.2171 2.99902Z" />
		<path d="M16.901 7.4825V4.34908H12.6727V1.99902H7.5987V4.34908H3.37037V7.4825H0.833374V12.1826H3.37037V16.8827H16.901V12.1826H19.438V7.4825H16.901ZM6.3302 9.44088C6.3302 8.7907 6.8968 8.26585 7.5987 8.26585C8.3006 8.26585 8.8672 8.7907 8.8672 9.44088C8.8672 10.0911 8.3006 10.6159 7.5987 10.6159C6.8968 10.6159 6.3302 10.0911 6.3302 9.44088ZM13.5184 13.7493H6.75304V12.1826H13.5184V13.7493ZM12.6727 10.6159C11.9708 10.6159 11.4042 10.0911 11.4042 9.44088C11.4042 8.7907 11.9708 8.26585 12.6727 8.26585C13.3746 8.26585 13.9412 8.7907 13.9412 9.44088C13.9412 10.0911 13.3746 10.6159 12.6727 10.6159Z" />
		<g clip-path="url(#clip0_1_1636)">
		<path d="M20.7287 35.4966L23.7276 38.4875L26.7185 35.4966L29.7094 38.4875L32.7084 35.4966L29.7094 32.5057L39.2288 22.9782L39.3333 19.8828L36.2379 19.9873L26.7185 29.5067L23.7196 26.5158L20.7287 29.5067L23.7276 32.5057L20.7287 35.4966Z"/>
		</g>
		<defs>
		<clipPath id="clip0_1_1636">
		<rect width="18.6047" height="18.6047" fill="white" transform="translate(20.7287 19.8828)"/>
		</clipPath>
		</defs>
	</symbol>
	<symbol id="profit" viewBox="0 0 41 40">
		<path fill-rule="evenodd" clip-rule="evenodd" d="M20.9997 36.6657C30.2044 36.6657 37.6663 29.2038 37.6663 19.999C37.6663 10.7943 30.2044 3.33235 20.9997 3.33235C11.7949 3.33235 4.33301 10.7943 4.33301 19.999C4.33301 29.2038 11.7949 36.6657 20.9997 36.6657ZM22.6663 11.7348V8.33235H19.333V11.6657C16.5716 11.6657 14.333 13.9043 14.333 16.6657C14.333 19.4271 16.5716 21.6657 19.333 21.6657H22.6663C23.5868 21.6657 24.333 22.4119 24.333 23.3324C24.333 24.2528 23.5868 24.999 22.6663 24.999H19.333C18.4125 24.999 17.6663 24.2528 17.6663 23.3324H14.333C14.333 26.0938 16.5716 28.3324 19.333 28.3324V31.6657H22.6663V28.3324C25.4278 28.3324 27.6663 26.0938 27.6663 23.3324C27.6663 20.5709 25.4278 18.3324 22.6663 18.3324H19.333C18.4125 18.3324 17.6663 17.5862 17.6663 16.6657C17.6663 15.7452 18.4125 14.999 19.333 14.999H21.833C22.7535 14.999 23.4997 15.7452 23.4997 16.6657H26.833C26.833 14.1882 25.0311 12.1315 22.6663 11.7348Z" />
	</symbol>
	<symbol id="left-arrow" viewBox="0 0 24 24">
		<path fill-rule="evenodd" clip-rule="evenodd" d="M17.4286 3.42857L16 2L6 12L7.42857 13.4286L7.42859 13.4286L16.0001 22.0001L17.4287 20.5715L8.85716 12L17.4286 3.42857Z"/>
	</symbol>
	<symbol id="right-arrow" viewBox="0 0 24 24">
		<path fill-rule="evenodd" clip-rule="evenodd" d="M7.99986 2.00014L6.57129 3.42871L15.1427 12.0001L6.57143 20.5714L8 22L16.5713 13.4287L17.9999 12.0001L18 12L16.5714 10.5714L16.5713 10.5716L7.99986 2.00014Z"/>
	</symbol>
</svg>
